<svg xmlns="http://www.w3.org/2000/svg" width="400" height="400" viewBox="0 0 400 400"><title>bulb-61</title><g><path fill="#b3b3b3" d="M200.16 308.58a41.7 41.7 0 1 0 0 83.4 41.7 41.7 0 1 0 0-83.4z"></path><path fill="#dad7d1" d="M185.08 9.12c-64.6 6.7-117.36 58.08-125.52 122.52-8.04 63.38 25.84 122.18 82.22 147.62v46h116.76v-46a141.16 141.16 0 0 0 83.4-129.14c0-83.14-71.94-149.8-156.86-141z"></path><path fill="#f1efe8" d="M133.44 158.46a8.34 8.34 0 0 1-8.34-8.34c0-41.4 33.68-75.06 75.06-75.06a8.34 8.34 0 1 1 0 16.68c-32.2 0-58.38 26.18-58.38 58.38a8.34 8.34 0 0 1-8.34 8.34z"></path><path fill="#f3ecec" d="M141.78 316.92v33.36a16.68 16.68 0 0 0 16.68 16.68h83.4a16.68 16.68 0 0 0 16.68-16.68v-33.36h-116.76z"></path></g></svg>